<svg width="239" height="212" viewBox="0 0 239 212" fill="none" xmlns="http://www.w3.org/2000/svg">
    <path d="M28.1272 0.592529C47.3407 5.57437 79.342 15.2644 96.0366 29.7148C121.783 52 122.231 81.884 121.783 101C121.161 127.523 102.592 168.047 85.2203 191.439C71.5656 209.826 47.9118 215.83 20 206C7.12778 201.467 -1.48293 180.85 1.73008 168.459C7.06458 147.885 28.9087 131.759 47.9118 124.67C71.454 115.889 97.0834 114.599 121.783 118.322C145.236 121.857 170.356 130.036 191.5 141C202.5 146.704 224 162 230.703 173C237.407 184 234.5 178.5 238 197"
          stroke="#9C9E9F" stroke-linecap="round" stroke-linejoin="round" stroke-dasharray="10 5"/>
</svg>
