<svg width="241" height="218" viewBox="0 0 241 218" fill="none" xmlns="http://www.w3.org/2000/svg">
    <path d="M233.427 6.6306C210.5 -8.49987 166.192 11.6952 149 35.5001C129.5 62.5 127.85 83.9686 126 103C123.433 129.406 134.563 169.692 149 195C160.348 214.893 200.061 219.7 219 215.5C239.834 208.146 241.18 189.14 239.478 176.452C236.652 155.386 216.903 136.754 198.888 127.435C176.571 115.891 148.665 111 125.665 108.5C102.086 105.937 81 107.757 60.5 113.5C40 119.243 12 137.5 3.5 167.5C0.498578 175.46 0.499922 181.208 0.499922 189"
          stroke="#9C9E9F" stroke-linecap="round" stroke-linejoin="round" stroke-dasharray="10 5"/>
</svg>
