<svg width="233" height="202" viewBox="0 0 233 202" fill="none" xmlns="http://www.w3.org/2000/svg">
<path d="M225.427 0.630533C205.755 3.26942 165.129 0.685652 154.512 21.3884C144.808 40.3123 141.541 72.0033 139.691 91.0348C137.124 117.441 131.396 157.933 145.833 183.241C157.181 203.134 195.227 203.554 214.165 199.354C227.489 196.399 233.18 183.139 231.478 170.452C228.653 149.386 208.903 130.754 190.888 121.435C168.571 109.891 143.281 105.533 118.314 106.263C94.6061 106.957 68.2415 107.772 45.307 114.197C28.4443 118.922 12.9613 129.674 6.68029 146.331C3.67887 154.29 4.72726 164.157 0.734847 171.292" stroke="#9C9E9F" stroke-linecap="round" stroke-linejoin="round" stroke-dasharray="10 5"/>
</svg>
