<svg width="232" height="206" viewBox="0 0 232 206" fill="none" xmlns="http://www.w3.org/2000/svg">
<path d="M28.1272 0.592476C47.3407 5.57431 87.9826 7.88702 96.0366 29.7147C103.399 49.6668 102.837 81.5209 102.388 100.637C101.766 127.16 102.592 168.047 85.2203 191.439C71.5656 209.826 33.7448 205.674 15.4473 199.23C2.57512 194.697 -1.48297 180.85 1.73004 168.459C7.06454 147.885 28.9087 131.758 47.9117 124.67C71.4539 115.889 97.0834 114.599 121.783 118.322C145.236 121.857 171.312 125.831 193.309 134.964C209.482 141.679 223.562 154.212 227.798 171.503C229.822 179.765 227.596 189.435 230.703 196.997" stroke="#9C9E9F" stroke-linecap="round" stroke-linejoin="round" stroke-dasharray="10 5"/>
</svg>
